<mxfile host="65bd71144e">
    <diagram id="tcBup9taFuwDeN2K67J-" name="Page-1">
        <mxGraphModel dx="599" dy="486" grid="1" gridSize="10" guides="1" tooltips="1" connect="1" arrows="1" fold="1" page="1" pageScale="1" pageWidth="850" pageHeight="1100" math="0" shadow="0">
            <root>
                <mxCell id="0"/>
                <mxCell id="1" parent="0"/>
                <mxCell id="2" value="classDiagram&#10;    class EventType {&#10;        &lt;&lt;Enumeration&gt;&gt;&#10;        START&#10;        HANDOFF&#10;        MESSAGE_COMPLETION&#10;        POST_MESSAGE_COMPLETION&#10;        TOOL_EXECUTION&#10;        POST_TOOL_EXECUTION&#10;        INSTRUCT&#10;        POST_INSTRUCT&#10;    }&#10;&#10;    class Event {&#10;        +EventType type&#10;        +T context&#10;        +str agent_id&#10;        +str datetime&#10;    }&#10;&#10;    class BaseEventHandleProvider {&#10;        &lt;&lt;Abstract&gt;&gt;&#10;        +handle_event(Event)*&#10;    }&#10;&#10;    class ProviderManager {&#10;        +trigger_event()&#10;        +get_event_providers()&#10;    }&#10;&#10;    class ProviderContext {&#10;        +Agent current_agent&#10;    }&#10;&#10;    Event --&gt; EventType&#10;    Event o-- ProviderContext : context&#10;    ProviderManager --&gt; Event : triggers&#10;    BaseEventHandleProvider --&gt; Event : handles&#10;    ProviderManager --&gt; BaseEventHandleProvider : manages" style="shadow=0;dashed=0;align=left;strokeWidth=1;shape=mxgraph.mermaid.abstract.mermaid;labelBackgroundColor=#ffffff;noLabel=1;theme=default;" vertex="1" parent="1">
                    <mxGeometry x="140" y="80" width="400" height="300" as="geometry"/>
                </mxCell>
            </root>
        </mxGraphModel>
    </diagram>
    <diagram id="9HxZ3EuMAf3uXem4C9rb" name="Page-2">
        <mxGraphModel dx="419" dy="340" grid="1" gridSize="10" guides="1" tooltips="1" connect="1" arrows="1" fold="1" page="1" pageScale="1" pageWidth="850" pageHeight="1100" math="0" shadow="0">
            <root>
                <mxCell id="0"/>
                <mxCell id="1" parent="0"/>
                <mxCell id="QyzET5dpABNxcBLFws2a-1" value="classDiagram&#10;    %% Core Capabilities&#10;    class MemoryCapabilities {&#10;        +add_to_memory(text)&#10;        +search_memory(query)&#10;        +enhance_instructions()&#10;        +save_completion()&#10;    }&#10;&#10;    class EventHandling {&#10;        +handle_event(event)&#10;        +handle_start()&#10;        +handle_message_completion()&#10;        +handle_tool_execution()&#10;        +handle_post_tool_execution()&#10;    }&#10;&#10;    class LLMOperations {&#10;        +test_connection()&#10;        +initialize()&#10;        +prepare_messages()&#10;        +create_completion_response()&#10;        +complete(messages)&#10;    }&#10;&#10;    class BudgetTracking {&#10;        +handle_start()&#10;        +handle_post_message_completion()&#10;        +handle_handoff()&#10;        +show_budget()&#10;    }&#10;&#10;    class ToolManagement {&#10;        +handle_function_result()&#10;        +function_to_json()&#10;    }&#10;&#10;    class StreamProcessing {&#10;        +process_chunk()&#10;        +create_empty_message()&#10;        +finalize_message()&#10;        +merge_chunk()&#10;    }&#10;&#10;    %% Provider Management&#10;    class ProviderOperations {&#10;        +register_provider()&#10;        +create_provider()&#10;        +get_providers_by_class()&#10;        +get_provider_by_id()&#10;        +get_event_providers()&#10;        +trigger_event()&#10;    }&#10;&#10;    %% File Operations&#10;    class FileOperations {&#10;        +load_dictionary_list()&#10;        +save_text_to_file()&#10;        +write_to_log()&#10;        +ensure_log_directory()&#10;    }&#10;&#10;    %% Relationships&#10;    ZepProvider --|&gt; MemoryCapabilities&#10;    DebugProvider --|&gt; EventHandling&#10;    LiteLLMProvider --|&gt; LLMOperations&#10;    BudgetProvider --|&gt; BudgetTracking&#10;    ProviderManager --|&gt; ProviderOperations&#10;&#10;    %% Utility Relationships&#10;    ToolHandler --|&gt; ToolManagement&#10;    StreamHandler --|&gt; StreamProcessing&#10;    FileHandler --|&gt; FileOperations&#10;" style="shadow=0;dashed=0;align=left;strokeWidth=1;shape=mxgraph.mermaid.abstract.mermaid;labelBackgroundColor=#ffffff;noLabel=1;theme=default;" vertex="1" parent="1">
                    <mxGeometry x="220" y="280" width="400" height="300" as="geometry"/>
                </mxCell>
            </root>
        </mxGraphModel>
    </diagram>
    <diagram id="SBfCpubj3nzn_h-DtJQn" name="Page-3">
        <mxGraphModel dx="499" dy="405" grid="1" gridSize="10" guides="1" tooltips="1" connect="1" arrows="1" fold="1" page="1" pageScale="1" pageWidth="850" pageHeight="1100" math="0" shadow="0">
            <root>
                <mxCell id="0"/>
                <mxCell id="1" parent="0"/>
                <mxCell id="HjbfT8rZmUuRElEEtu4W-1" value="classDiagram&#10;    %% Base Classes&#10;    class BaseProvider {&#10;        &lt;&lt;Abstract&gt;&gt;&#10;    }&#10;    class BaseProviderConfig {&#10;        +Scope scope&#10;        +bool enabled&#10;    }&#10;&#10;    %% Provider Types&#10;    class BaseLLMProvider {&#10;        &lt;&lt;Abstract&gt;&gt;&#10;        +test_connection()*&#10;        +async_complete()*&#10;        +complete()*&#10;    }&#10;    class BaseEventHandleProvider {&#10;        &lt;&lt;Abstract&gt;&gt;&#10;        +handle_event()*&#10;    }&#10;&#10;    %% Concrete Implementations&#10;    class LiteLLMProvider {&#10;        +test_connection()&#10;        +async_complete()&#10;        +complete()&#10;    }&#10;    class BudgetProvider {&#10;        +handle_event()&#10;    }&#10;    class DebugProvider {&#10;        +handle_event()&#10;    }&#10;    class ZepProvider {&#10;        +handle_event()&#10;    }&#10;&#10;    %% Provider Configs&#10;    class LiteLLMConfig {&#10;        +str llm_model_id&#10;    }&#10;    class BudgetConfig {&#10;    }&#10;    class DebugConfig {&#10;    }&#10;    class ZepConfig {&#10;    }&#10;&#10;    %% Relationships&#10;    BaseProvider &lt;|-- BaseLLMProvider&#10;    BaseProvider &lt;|-- BaseEventHandleProvider&#10;    &#10;    BaseLLMProvider &lt;|-- LiteLLMProvider&#10;    BaseEventHandleProvider &lt;|-- BudgetProvider&#10;    BaseEventHandleProvider &lt;|-- DebugProvider&#10;    BaseEventHandleProvider &lt;|-- ZepProvider&#10;    &#10;    BaseProviderConfig &lt;|-- LiteLLMConfig&#10;    BaseProviderConfig &lt;|-- BudgetConfig&#10;    BaseProviderConfig &lt;|-- DebugConfig&#10;    BaseProviderConfig &lt;|-- ZepConfig&#10;&#10;    LiteLLMProvider o-- LiteLLMConfig&#10;    BudgetProvider o-- BudgetConfig&#10;    DebugProvider o-- DebugConfig&#10;    ZepProvider o-- ZepConfig&#10;&#10;    %% Error Classes&#10;    class LiteLLMError {&#10;        &lt;&lt;Exception&gt;&gt;&#10;    }&#10;    class ConfigurationError {&#10;        &lt;&lt;Exception&gt;&gt;&#10;    }&#10;    class CompletionError {&#10;        &lt;&lt;Exception&gt;&gt;&#10;    }&#10;    class ConnectionError {&#10;        &lt;&lt;Exception&gt;&gt;&#10;    }&#10;&#10;    LiteLLMError &lt;|-- ConfigurationError&#10;    LiteLLMError &lt;|-- CompletionError&#10;    LiteLLMError &lt;|-- ConnectionError&#10;" style="shadow=0;dashed=0;align=left;strokeWidth=1;shape=mxgraph.mermaid.abstract.mermaid;labelBackgroundColor=#ffffff;noLabel=1;theme=default;" vertex="1" parent="1">
                    <mxGeometry x="220" y="280" width="400" height="300" as="geometry"/>
                </mxCell>
            </root>
        </mxGraphModel>
    </diagram>
    <diagram id="OtvH86e0CsSy_iR5Xr9T" name="Page-4">
        <mxGraphModel dx="1048" dy="851" grid="1" gridSize="10" guides="1" tooltips="1" connect="1" arrows="1" fold="1" page="1" pageScale="1" pageWidth="850" pageHeight="1100" math="0" shadow="0">
            <root>
                <mxCell id="0"/>
                <mxCell id="1" parent="0"/>
                <mxCell id="NkqpWLUnvYmYcg-FHdqB-1" value="classDiagram&#10;    class BaseProviderConfig {&#10;        +Scope scope&#10;        +bool enabled&#10;    }&#10;&#10;    class BaseLLMProviderConfig {&#10;        +str llm_model_id&#10;    }&#10;&#10;    class BaseProvider {&#10;        &lt;&lt;Abstract&gt;&gt;&#10;        -str _provider_id&#10;        +ProviderContext context&#10;        +bool is_enabled&#10;        +update_context(context)&#10;        +get_context()&#10;    }&#10;&#10;    class BaseLLMProvider {&#10;        &lt;&lt;Abstract&gt;&gt;&#10;        +test_connection()* bool&#10;        +async_complete(messages, override_model, stream)* Message&#10;        +complete(messages, override_model, tools, tool_choice)* Message&#10;    }&#10;&#10;    class ABC {&#10;        &lt;&lt;Abstract&gt;&gt;&#10;    }&#10;&#10;    BaseProviderConfig &lt;|-- BaseLLMProviderConfig&#10;    ABC &lt;|-- BaseProvider&#10;    BaseProvider &lt;|-- BaseLLMProvider&#10;    BaseProvider o-- BaseProviderConfig : config&#10;    BaseLLMProvider o-- BaseLLMProviderConfig : config&#10;" style="shadow=0;dashed=0;align=left;strokeWidth=1;shape=mxgraph.mermaid.abstract.mermaid;labelBackgroundColor=#ffffff;noLabel=1;theme=default;" vertex="1" parent="1">
                    <mxGeometry x="120" y="380" width="600" height="100" as="geometry"/>
                </mxCell>
            </root>
        </mxGraphModel>
    </diagram>
    <diagram id="5e1B5X6apPlax7MdxwqB" name="Page-5">
        <mxGraphModel dx="1048" dy="851" grid="1" gridSize="10" guides="1" tooltips="1" connect="1" arrows="1" fold="1" page="1" pageScale="1" pageWidth="850" pageHeight="1100" math="0" shadow="0">
            <root>
                <mxCell id="0"/>
                <mxCell id="1" parent="0"/>
                <mxCell id="7tMXV15M-riIlfQMc3m5-1" value="classDiagram&#10;    class ProviderManager {&#10;        -dict _providers&#10;        -dict _config_to_provider_map&#10;        +register_provider()&#10;        +create_provider_and_register()&#10;        +get_providers_by_class()&#10;        +get_provider_to_agent_name_by_class()&#10;        +get_first_llm_provider()&#10;        +trigger_event()&#10;    }&#10;&#10;    class Agent {&#10;        +str name&#10;        +str model&#10;        +str description&#10;        +str instructions&#10;        +list functions&#10;        +str tool_choice&#10;        +bool parallel_tool_calls&#10;        -ProviderManager _provider_manager&#10;        +get_typed_provider()&#10;        +quickstart()&#10;    }&#10;&#10;    class BaseEventHandleProvider {&#10;        &lt;&lt;Abstract&gt;&gt;&#10;        +handle_event()*&#10;    }&#10;&#10;    class BaseLLMProvider {&#10;        &lt;&lt;Abstract&gt;&gt;&#10;        +test_connection()*&#10;        +async_complete()*&#10;        +complete()*&#10;    }&#10;&#10;    class BaseProvider {&#10;        &lt;&lt;Abstract&gt;&gt;&#10;        -str _provider_id&#10;        +ProviderContext context&#10;    }&#10;&#10;    ProviderManager &quot;1&quot; --o &quot;*&quot; BaseProvider : manages&#10;    Agent &quot;1&quot; --o &quot;1&quot; ProviderManager : uses&#10;    BaseProvider &lt;|-- BaseLLMProvider&#10;    BaseProvider &lt;|-- BaseEventHandleProvider&#10;" style="shadow=0;dashed=0;align=left;strokeWidth=1;shape=mxgraph.mermaid.abstract.mermaid;labelBackgroundColor=#ffffff;noLabel=1;theme=default;" vertex="1" parent="1">
                    <mxGeometry x="220" y="280" width="400" height="300" as="geometry"/>
                </mxCell>
            </root>
        </mxGraphModel>
    </diagram>
    <diagram id="utRANi3qXqiGRp_tnXUz" name="Page-6">
        <mxGraphModel dx="117" dy="95" grid="1" gridSize="10" guides="1" tooltips="1" connect="1" arrows="1" fold="1" page="1" pageScale="1" pageWidth="850" pageHeight="1100" math="0" shadow="0">
            <root>
                <mxCell id="0"/>
                <mxCell id="1" parent="0"/>
                <mxCell id="rQktUARxGc19-9TsfuA1-1" value="sequenceDiagram&#10;    participant U as User&#10;    participant S as Schwarm&#10;    participant A as Agent&#10;    participant PM as ProviderManager&#10;    participant LP as LLM Provider&#10;    participant EP as Event Provider&#10;    participant TH as Tool Handler&#10;&#10;    U-&gt;&gt;S: quickstart(agent, input)&#10;    S-&gt;&gt;PM: create_provider_and_register()&#10;    S-&gt;&gt;PM: trigger_event(START)&#10;    PM-&gt;&gt;EP: handle_event(START)&#10;    &#10;    loop Until max_turns or completion&#10;        S-&gt;&gt;S: _complete_agent_request()&#10;        S-&gt;&gt;PM: trigger_event(INSTRUCT)&#10;        PM-&gt;&gt;EP: handle_event(INSTRUCT)&#10;        &#10;        S-&gt;&gt;PM: get_first_llm_provider()&#10;        PM-&gt;&gt;LP: complete(messages, tools)&#10;        LP--&gt;&gt;S: completion&#10;        &#10;        alt Has tool_calls&#10;            S-&gt;&gt;TH: handle_tool_calls()&#10;            TH--&gt;&gt;S: tool_response&#10;            &#10;            alt Agent handoff&#10;                S-&gt;&gt;A: switch active agent&#10;            end&#10;        end&#10;    end&#10;    &#10;    S--&gt;&gt;U: Response(messages, agent, context)&#10;" style="shadow=0;dashed=0;align=left;strokeWidth=1;shape=mxgraph.mermaid.abstract.mermaid;labelBackgroundColor=#ffffff;noLabel=1;theme=default;" vertex="1" parent="1">
                    <mxGeometry x="370" y="310" width="100" height="240" as="geometry"/>
                </mxCell>
            </root>
        </mxGraphModel>
    </diagram>
    <diagram id="1Pq5kLje7SrqJ__CJZY6" name="Page-7">
        <mxGraphModel dx="599" dy="486" grid="1" gridSize="10" guides="1" tooltips="1" connect="1" arrows="1" fold="1" page="1" pageScale="1" pageWidth="850" pageHeight="1100" math="0" shadow="0">
            <root>
                <mxCell id="0"/>
                <mxCell id="1" parent="0"/>
                <mxCell id="HimXxJZeRlsUYzEN5zBI-1" value="classDiagram&#10;    class Schwarm {&#10;        -list _agents&#10;        -ProviderManager _manager&#10;        -ProviderContext _provider_context&#10;        +register_agent()&#10;        +quickstart()&#10;        +run()&#10;        -_complete_agent_request()&#10;    }&#10;&#10;    class Response {&#10;        +list messages&#10;        +Agent agent&#10;        +dict context_variables&#10;    }&#10;&#10;    class ToolHandler {&#10;        +handle_tool_calls()&#10;    }&#10;&#10;    class Message {&#10;        +str role&#10;        +str content&#10;        +str sender&#10;        +list tool_calls&#10;    }&#10;&#10;    class Agent {&#10;        +str name&#10;        +str model&#10;        +str instructions&#10;        +list functions&#10;        +str tool_choice&#10;        +bool parallel_tool_calls&#10;    }&#10;&#10;    class ProviderContext {&#10;        +list message_history&#10;        +Message current_message&#10;        +Agent current_agent&#10;        +dict context_variables&#10;        +list available_agents&#10;        +list available_tools&#10;        +dict available_providers&#10;    }&#10;&#10;    Schwarm &quot;1&quot; --o &quot;*&quot; Agent : manages&#10;    Schwarm &quot;1&quot; --o &quot;1&quot; ProviderManager : uses&#10;    Schwarm --&gt; ToolHandler : uses&#10;    Schwarm --&gt; Response : produces&#10;    Response o-- Agent&#10;    Response o-- Message&#10;    Schwarm --&gt; ProviderContext : maintains&#10;    ProviderContext o-- Agent&#10;    ProviderContext o-- Message&#10;" style="shadow=0;dashed=0;align=left;strokeWidth=1;shape=mxgraph.mermaid.abstract.mermaid;labelBackgroundColor=#ffffff;noLabel=1;theme=default;" vertex="1" parent="1">
                    <mxGeometry x="220" y="280" width="400" height="300" as="geometry"/>
                </mxCell>
            </root>
        </mxGraphModel>
    </diagram>
    <diagram id="mLCYmAXPrqQ-ljjnkDRS" name="Page-8">
        <mxGraphModel dx="1048" dy="851" grid="1" gridSize="10" guides="1" tooltips="1" connect="1" arrows="1" fold="1" page="1" pageScale="1" pageWidth="850" pageHeight="1100" math="0" shadow="0">
            <root>
                <mxCell id="0"/>
                <mxCell id="1" parent="0"/>
                <mxCell id="ZNaioB7Ky5P5wGfzx8In-1" value="graph TB&#10;    subgraph WebDebugProvider&#10;        WDP[WebDebugProvider]&#10;        WS[WebSocket Server]&#10;        API[FastAPI Server]&#10;        EH[Event Handler]&#10;        VIZ[Visualizations]&#10;    end&#10;&#10;    subgraph Frontend&#10;        UI[Web Dashboard]&#10;        AG[Agent Graph]&#10;        TL[Timeline]&#10;        BV[Budget Viz]&#10;    end&#10;&#10;    subgraph Events&#10;        START[Start Event]&#10;        MSG[Message Event]&#10;        TOOL[Tool Event]&#10;        POST[Post Tool Event]&#10;    end&#10;&#10;    %% Event Flow&#10;    START --&gt; EH&#10;    MSG --&gt; EH&#10;    TOOL --&gt; EH&#10;    POST --&gt; EH&#10;&#10;    %% Provider Internal Flow&#10;    EH --&gt; WDP&#10;    WDP --&gt; WS&#10;    WDP --&gt; API&#10;    &#10;    %% Frontend Communication&#10;    WS --&gt; UI&#10;    API --&gt; UI&#10;&#10;    %% Frontend Components&#10;    UI --&gt; AG&#10;    UI --&gt; TL&#10;    UI --&gt; BV&#10;&#10;    %% Visualization Types&#10;    VIZ --&gt; |D3.js Graph|AG&#10;    VIZ --&gt; |Timeline View|TL&#10;    VIZ --&gt; |Budget Charts|BV&#10;&#10;    %% Styling&#10;    classDef provider fill:#f9f,stroke:#333,stroke-width:2px&#10;    classDef frontend fill:#bbf,stroke:#333,stroke-width:2px&#10;    classDef events fill:#bfb,stroke:#333,stroke-width:2px&#10;    &#10;    class WDP,WS,API,EH,VIZ provider&#10;    class UI,AG,TL,BV frontend&#10;    class START,MSG,TOOL,POST events&#10;" style="shadow=0;dashed=0;align=left;strokeWidth=1;shape=mxgraph.mermaid.abstract.mermaid;labelBackgroundColor=#ffffff;noLabel=1;theme=default;" vertex="1" parent="1">
                    <mxGeometry x="220" y="280" width="400" height="300" as="geometry"/>
                </mxCell>
            </root>
        </mxGraphModel>
    </diagram>
</mxfile>